# xmcd
#
# Track frame offsets:
# 150
# 20967
# 39945
# 62127
# 80586
# 100951
# 122363
# 136997
# 154450
# 175177
# 199135
# 224027
# 246649
# 269290
# 292150
# 310152
# 334709
#
# Disc length: 4732 seconds
#
# Revision: 1
# Processed by: cddbd v1.5.2PL0 Copyright (c) Steve Scherf et al.
# Submitted via: CedeCatalogueitor 2.6.0.6 http://personales.ya.com/cdcatalogueitor
#
DISCID=0c127a11
DTITLE=Varios Artistas - Electronic Music 2007
DYEAR=1900
DGENRE=
TTITLE0=Older: The Man Of Paper
TTITLE1=Monoceros: The Day We Become One
TTITLE2=Jaumëtic Aka Phil Link: Viva Triana!
TTITLE3=Burbuja: Misstortilladepatata
TTITLE4=Brunetto: Conica (Yokese)
TTITLE5=Fibla: Montsianell
TTITLE6=Ferro-Concrete: Glacial (A Means) Feat. Daniel Givens
TTITLE7=Metronique: Sense
TTITLE8=Pep Gaya: Dragon Soup
TTITLE9=Paper: Transmissions
TTITLE10=Alecs Marta: Es Barruget
TTITLE11=Oriol Benedet: Genética
TTITLE12=D.A.R.Y.L.: Phoskitos
TTITLE13=Marc Marzenit: Trozitos De Navidad
TTITLE14=Sr. Click: Buscando Libertad
TTITLE15=Andresandeas: Alarm:on
TTITLE16=Hierro: Lick The Rust
EXTD=
EXTT0=
EXTT1=
EXTT2=
EXTT3=
EXTT4=
EXTT5=
EXTT6=
EXTT7=
EXTT8=
EXTT9=
EXTT10=
EXTT11=
EXTT12=
EXTT13=
EXTT14=
EXTT15=
EXTT16=
PLAYORDER=
